<svg xmlns="http://www.w3.org/2000/svg" viewBox="0 0 507.86 587.98"><defs><style>.cls-1,.cls-3{fill:#97d700;}.cls-1{fill-rule:evenodd;}.cls-2{fill:#fff;}</style></defs><title>Asset 3outlaws</title><g id="Layer_2" data-name="Layer 2"><g id="Layer_1-2" data-name="Layer 1"><g id="HOUSTON"><path class="cls-1" d="M110.66,479.7h-4.45v-6.61h-2.83v16h2.83v-6.61h4.45v6.61h2.83v-16h-2.83Zm49.51-6.61h-2.83a3.62,3.62,0,0,0-3.64,3.64v8.69a3.61,3.61,0,0,0,3.64,3.64h2.83a3.62,3.62,0,0,0,3.64-3.64v-8.69A3.62,3.62,0,0,0,160.18,473.09Zm.81,11.81a1.29,1.29,0,0,1-1.42,1.42H158a1.28,1.28,0,0,1-1.42-1.42v-7.64a1.28,1.28,0,0,1,1.42-1.42h1.62a1.28,1.28,0,0,1,1.42,1.42Zm50.32,0a1.28,1.28,0,0,1-1.42,1.42h-1.62a1.28,1.28,0,0,1-1.42-1.42V473.09H204v12.33a3.61,3.61,0,0,0,3.64,3.64h2.83a3.62,3.62,0,0,0,3.64-3.64V473.09h-2.83Zm47.29-9.06h1.62a1.26,1.26,0,0,1,1.42,1.27l2.83-.71a3.66,3.66,0,0,0-3.64-3.32H258a3.62,3.62,0,0,0-3.64,3.64v1.19a3.85,3.85,0,0,0,2.69,3.66l3.68,1.48a1.17,1.17,0,0,1,.91,1.29v.55a1.28,1.28,0,0,1-1.42,1.42H258.6a1.26,1.26,0,0,1-1.42-1.31l-2.83.71a3.63,3.63,0,0,0,3.64,3.36h2.83a3.62,3.62,0,0,0,3.64-3.64v-1.56c0-1.68-1.09-2.71-2.65-3.34L258,479c-.69-.28-.83-.65-.83-1.56v-.2A1.28,1.28,0,0,1,258.6,475.84Zm46.08,0h3.64v13.22h2.83V475.84h3.64v-2.75H304.67Zm56.79-2.75h-2.83a3.62,3.62,0,0,0-3.64,3.64v8.69a3.61,3.61,0,0,0,3.64,3.64h2.83a3.62,3.62,0,0,0,3.64-3.64v-8.69A3.62,3.62,0,0,0,361.46,473.09Zm.81,11.81a1.29,1.29,0,0,1-1.42,1.42h-1.62a1.28,1.28,0,0,1-1.42-1.42v-7.64a1.28,1.28,0,0,1,1.42-1.42h1.62a1.28,1.28,0,0,1,1.42,1.42Zm50.32-11.81v9.34L408,473.09h-2.67v16h2.83v-9.3l4.63,9.3h2.65v-16Z"/></g><polygon class="cls-2" points="196.25 523.58 217.56 523.58 217.56 509.21 157.88 509.21 157.88 523.58 179.19 523.58 179.19 542.62 171.61 548.76 179.19 554.9 179.19 587.96 196.25 587.96 196.25 554.9 203.83 548.76 196.25 542.62 196.25 523.58"/><polygon class="cls-2" points="241.25 567.89 241.25 554.92 248.84 548.78 241.25 542.64 241.25 509.23 224.2 509.23 224.2 542.64 216.62 548.78 224.2 554.92 224.2 576.74 237.96 587.98 273.82 587.96 273.82 573.6 248.29 573.6 241.25 567.89"/><polygon class="cls-2" points="435.17 509.23 418.11 523.74 418.11 567.89 411.07 573.6 406.49 573.6 406.49 523.57 389.43 523.57 389.43 573.6 384.84 573.6 377.81 567.89 377.81 523.74 360.75 509.23 360.75 542.64 353.17 548.78 360.75 554.92 360.75 576.9 374.27 587.98 421.42 587.98 435.17 576.9 435.17 554.92 442.75 548.78 435.17 542.64 435.17 509.23"/><path class="cls-2" d="M342.44,520.81l-14.31-11.6H294.29L280,520.81v21.83l-7.58,6.14,7.58,6.14V588L297,574.11V554.92l.28-.23h28.07v19.41L342.44,588V554.92l7.58-6.14-7.58-6.14Zm-17.06,21.83H297V529.21l6.75-5.09h14.86l6.75,5.09Z"/><polygon class="cls-2" points="150 509.21 132.95 523.08 132.95 543.01 125.85 548.76 132.95 554.51 132.95 567.99 126.2 573.08 111.34 573.08 104.6 567.99 104.6 554.67 111.9 548.76 104.6 542.84 104.6 523.08 87.54 509.21 87.54 542.27 79.96 548.41 87.54 554.56 87.54 576.38 101.86 587.98 135.69 587.98 150 576.38 150 554.56 157.58 548.41 150 542.27 150 509.21"/><path class="cls-2" d="M70.31,542.27V520.81L56,509.21H22.16L7.85,520.81v21.46L0,548.6l7.85,6.33v21.46L22.16,588H56l14.31-11.6V554.92l7.84-6.33ZM53.26,543l-7.1,5.75,7.1,5.75V568l-6.75,5.09H31.65L24.9,568V554.67l7.3-5.92-7.3-5.92V529.21l6.75-5.09H46.51l6.75,5.09Z"/><polygon class="cls-2" points="488.03 548.18 488.03 539.45 477.6 539.45 463.74 527.85 468.68 524.12 483.54 524.12 490.29 529.21 490.29 536.48 507.34 536.48 507.34 520.81 493.03 509.21 459.2 509.21 444.88 520.81 444.88 532.13 464.43 548.46 464.43 557.21 474.9 557.21 488.98 568.98 483.54 573.08 469.1 573.08 462.35 567.99 462.35 560.22 445.3 560.22 445.3 576.38 459.61 587.98 493.03 587.98 507.86 576.11 507.86 564.78 488.03 548.18"/><polygon class="cls-3" points="259.55 0 277.05 53.85 333.67 53.85 287.86 87.13 305.36 140.98 259.55 107.7 213.75 140.98 231.24 87.13 185.43 53.85 242.06 53.85 259.55 0"/><path class="cls-2" d="M385.85,133.45l-2.83.75c-46.66,5.51-68.13,22-68.13,22-8.09,7.89-13.32,10-13.32,10a56.18,56.18,0,0,1-12,2.32c-.74-.17-2.73,1.67-2.73,1.67a35.9,35.9,0,0,0-15.72,18A41,41,0,0,0,265.5,186a27.54,27.54,0,0,0-13.94-.08,42.56,42.56,0,0,0-6,2.2,35.9,35.9,0,0,0-15.72-18s-2-1.84-2.73-1.67a56.18,56.18,0,0,1-12-2.32s-5.22-2.16-13.32-10c0,0-21.47-16.45-68.13-22l-2.83-.75s-.54.49-.22,1.85l9.46,46.46,5.36-3.88s.44-.55,2.08-.6c0,0,26.95-1.84,34.94,7.6,0,0,2.93,4.06,3.36,7.53,0,0,.75,2-4.27,5.39,0,0-9.87,4.48-11.85,8.49a25.64,25.64,0,0,0-.43,15.26s.85,2.88,1.65,5.23c0,0,2.64,7.85,14.93,8.49,0,0,7.43.37,9.46,3.42a20.57,20.57,0,0,1,3.26,6.24l3.47,15.37a14.21,14.21,0,0,0,3.52,7.26s5.31,5.79,7.9,8c0,0,.32.23.27,1v27.51a5.19,5.19,0,0,0,3.63,5.1,2,2,0,0,1,1.41.85,24.15,24.15,0,0,1,4.12,8.77l2.38,84.08s-.73,1.68,4.74,4.9l.77.15,8.84,1.26,1.34.73h1.36v8.41s-.14,2.34,3.93,3h6.88s3.32-.17,3.15-3.08v-1.56h4.09v1.56c-.17,2.91,3.15,3.08,3.15,3.08h6.88c4.07-.68,3.93-3,3.93-3v-8.41h1.36l1.34-.73,8.84-1.26.77-.15c5.47-3.21,4.74-4.9,4.74-4.9l2.38-84.08a24.15,24.15,0,0,1,4.12-8.77,2,2,0,0,1,1.41-.85,5.19,5.19,0,0,0,3.63-5.1V276.57c0-.82.27-1,.27-1,2.59-2.18,7.9-8,7.9-8a14.21,14.21,0,0,0,3.52-7.26l3.47-15.37a20.57,20.57,0,0,1,3.26-6.24c2-3,9.46-3.42,9.46-3.42,12.29-.64,14.93-8.49,14.93-8.49.8-2.35,1.65-5.23,1.65-5.23a25.64,25.64,0,0,0-.43-15.26c-2-4-11.85-8.49-11.85-8.49-5-3.42-4.27-5.39-4.27-5.39.43-3.47,3.36-7.53,3.36-7.53,8-9.44,34.94-7.6,34.94-7.6,1.64.05,2.08.6,2.08.6l5.36,3.88,9.46-46.46C386.39,133.94,385.85,133.45,385.85,133.45Zm-192.4,94.62a13.56,13.56,0,0,1-9.39,2.27,10.49,10.49,0,0,1-8.29-7.35,21.84,21.84,0,0,1-1.16-9.56c.83-5,4.62-5.78,9.45-6.41,7.78-1,9.45,2.23,9.45,2.23,2.81,3.66,2.81,12.85,2.81,12.85A8.43,8.43,0,0,1,193.45,228.07ZM263.25,387.3c.47,4-2.64,6.85-2.64,6.85V408h-4.5V394.15s-3.12-2.88-2.64-6.85l-.34-84.67a8.2,8.2,0,0,1,2.71-5.52h5a8.2,8.2,0,0,1,2.71,5.52Zm2.22-188.63-3.31,6.7a27.65,27.65,0,0,0-1.1,2.74V278h-5.4V208.12a27.65,27.65,0,0,0-1.1-2.74l-3.31-6.7a3.67,3.67,0,0,1,.4-3.8c7.65-4.48,13.38-.05,13.38-.05A3.65,3.65,0,0,1,265.47,198.68ZM332.65,207c4.83.63,8.62,1.44,9.45,6.41a21.84,21.84,0,0,1-1.16,9.56,10.49,10.49,0,0,1-8.29,7.35,13.56,13.56,0,0,1-9.39-2.27,8.43,8.43,0,0,1-2.87-6s0-9.19,2.81-12.85C323.19,209.26,325.07,206,332.65,207Z"/><path class="cls-3" d="M124.16,132.31a16.46,16.46,0,0,1-4.07-1.12,37.31,37.31,0,0,1-16.24-29.83s-3-21.07,10.1-38.87V60.4s-32.8,25.68-32.8,59.16c0,0,.81,25.83,8.81,37.22,0,0,11.77,17.2,44.8,24Z"/><path class="cls-3" d="M402.75,60.4v2.09c13.06,17.8,10.1,38.87,10.1,38.87a37.31,37.31,0,0,1-16.24,29.83,16.3,16.3,0,0,1-3.89,1.09l-10.6,48.45c32.89-6.81,44.62-24,44.62-24,8-11.39,8.81-37.22,8.81-37.22C435.55,86.07,402.75,60.4,402.75,60.4Z"/></g></g></svg>